 <svg version="1.0" xmlns="http://www.w3.org/2000/svg" width="700.000000pt" height="368.000000pt" viewBox="0 0 700.000000 368.000000" preserveAspectRatio="xMidYMid meet">
<metadata>
Created by potrace 1.12, written by Peter Selinger 2001-2015
</metadata>
<g transform="translate(0.000000,368.000000) scale(0.100000,-0.100000)" fill="#000000" stroke="none">
<path d="M3195 2895 c-165 -96 -308 -179 -318 -185 -16 -10 -17 -36 -15 -378
l3 -367 318 -183 317 -183 238 137 c130 75 273 158 317 184 l80 47 0 368 0
369 -150 86 c-82 48 -225 130 -317 183 -92 53 -169 97 -170 96 -2 0 -138 -79
-303 -174z m566 -41 c242 -139 288 -169 278 -177 -2 -3 -41 -25 -86 -51 l-82
-47 -38 20 c-21 11 -101 56 -178 100 -77 45 -147 81 -156 81 -9 0 -79 -36
-154 -80 -75 -45 -155 -90 -177 -101 l-39 -20 -57 32 c-95 53 -115 70 -102 83
16 16 513 304 526 305 7 1 126 -65 265 -145z m-73 -237 l152 -88 0 -180 c0
-116 -4 -179 -10 -179 -6 0 -78 39 -160 86 l-150 86 0 185 c0 101 4 183 8 181
5 -1 77 -43 160 -91z m-208 -92 l0 -175 -37 -23 c-33 -21 -111 -65 -235 -135
l-37 -21 -3 175 c-4 207 -13 186 122 256 14 7 56 32 95 55 38 24 75 43 82 43
10 0 13 -38 13 -175z m-478 63 c118 -67 108 -42 108 -274 l0 -204 38 -24 c20
-13 101 -61 180 -106 l142 -82 0 -104 c0 -57 -4 -104 -8 -104 -8 0 -465 260
-519 296 l-23 14 0 315 c0 173 2 315 4 315 2 0 37 -19 78 -42z m1078 -272 c0
-239 -3 -316 -12 -323 -18 -15 -500 -290 -520 -298 -16 -7 -18 2 -18 98 l0
106 180 102 180 103 2 210 3 211 85 52 c47 28 88 52 93 52 4 1 7 -140 7 -313z
m-423 -93 c84 -49 153 -90 153 -93 0 -6 -287 -173 -305 -178 -12 -3 -315 167
-315 177 0 6 299 180 309 181 3 0 74 -39 158 -87z"></path>
<path d="M3635 2530 c-3 -5 -1 -19 5 -30 7 -13 9 -41 5 -74 -6 -49 -5 -54 19
-69 43 -28 49 -23 42 37 -5 33 -3 56 3 60 13 8 4 35 -22 64 -22 23 -42 28 -52
12z"></path>
<path d="M2180 1156 c-6 -8 -10 -25 -8 -38 2 -18 10 -24 35 -26 28 -3 33 1 39
23 11 45 -37 75 -66 41z"></path>
<path d="M1854 1147 c-2 -7 -3 -91 -2 -187 l3 -175 26 -3 c26 -3 26 -3 31 81
6 95 18 124 53 133 46 11 55 -9 55 -117 l0 -99 30 0 30 0 0 115 c0 102 -2 117
-20 135 -24 24 -87 27 -116 5 -10 -8 -22 -15 -26 -15 -5 0 -8 32 -8 70 0 68
-1 70 -25 70 -14 0 -28 -6 -31 -13z"></path>
<path d="M1653 1133 c-15 -10 -23 -26 -23 -45 0 -21 -6 -31 -20 -35 -14 -4
-20 -14 -20 -34 0 -22 5 -29 20 -29 18 0 20 -7 20 -76 0 -70 2 -78 29 -105 21
-21 39 -29 65 -29 19 0 38 4 41 10 8 14 -14 52 -26 44 -6 -3 -19 2 -30 12 -15
13 -19 30 -19 81 l0 63 35 0 c32 0 35 2 35 29 0 26 -4 30 -32 33 -32 3 -33 5
-36 51 -3 51 -6 54 -39 30z"></path>
<path d="M2180 914 l0 -135 28 3 27 3 3 133 3 132 -31 0 -30 0 0 -136z"></path>
<path d="M2361 1024 c-40 -51 -22 -96 50 -124 30 -12 44 -23 44 -36 0 -25 -41
-31 -65 -9 -21 19 -60 12 -60 -10 0 -7 14 -25 31 -39 43 -36 91 -35 130 3 51
52 36 96 -43 130 -49 21 -63 46 -32 58 9 3 25 1 36 -6 15 -9 23 -9 34 0 21 17
17 34 -11 47 -45 21 -91 15 -114 -14z"></path>
<path d="M2646 1029 c-76 -60 -73 -180 6 -229 41 -26 116 -23 156 7 63 46 66
151 7 210 -29 29 -39 33 -88 33 -40 0 -61 -5 -81 -21z m119 -54 c49 -49 24
-135 -40 -135 -41 0 -65 29 -65 78 0 36 37 82 65 82 9 0 27 -11 40 -25z"></path>
<path d="M2950 864 l0 -185 33 3 c31 3 32 4 37 60 4 48 7 56 20 48 23 -14 67
-12 101 6 74 38 78 188 8 238 -27 18 -99 22 -116 5 -8 -8 -13 -8 -17 0 -4 6
-20 11 -37 11 l-29 0 0 -186z m154 115 c20 -16 26 -29 26 -61 0 -50 -22 -78
-61 -78 -59 0 -83 100 -33 139 15 12 30 21 34 21 4 0 19 -9 34 -21z"></path>
<path d="M3343 1040 c-68 -27 -85 -161 -28 -220 34 -36 83 -47 136 -31 46 14
81 57 58 72 -21 13 -38 11 -55 -6 -23 -23 -80 -19 -98 7 -8 12 -13 25 -10 30
3 4 45 8 95 8 100 0 104 4 75 74 -27 66 -102 94 -173 66z m100 -62 l22 -23
-54 -3 c-63 -4 -70 1 -46 28 24 26 50 25 78 -2z"></path>
<path d="M3614 1037 c-2 -7 -3 -67 -2 -133 l3 -119 30 0 30 0 5 87 c6 90 23
128 60 128 33 0 40 -22 40 -122 l0 -98 30 0 30 0 0 115 c0 102 -2 117 -20 135
-25 25 -81 26 -115 4 -23 -15 -25 -15 -25 0 0 20 -58 23 -66 3z"></path>
<path d="M3965 1025 c-46 -46 -28 -97 46 -125 30 -12 44 -23 44 -36 0 -25 -41
-31 -65 -9 -21 19 -60 12 -60 -10 0 -25 59 -65 97 -65 68 0 122 93 77 131 -9
8 -35 21 -58 29 -43 16 -59 46 -30 57 9 3 25 1 36 -6 15 -9 23 -9 34 0 21 17
17 34 -11 47 -42 19 -83 14 -110 -13z"></path>
<path d="M4210 864 l0 -184 35 0 35 0 0 60 c0 57 1 60 19 50 48 -25 120 0 147
52 12 22 15 48 12 91 -4 52 -9 64 -36 88 -29 26 -36 28 -122 27 l-90 -1 0
-183z m160 116 c25 -25 27 -95 3 -122 -20 -22 -66 -23 -84 -1 -8 9 -14 36 -14
60 0 35 5 49 24 64 30 24 46 24 71 -1z"></path>
<path d="M4576 1029 c-14 -11 -26 -27 -26 -34 0 -22 39 -29 59 -11 21 19 52
21 69 4 21 -21 13 -38 -18 -38 -77 0 -137 -53 -125 -110 12 -55 83 -79 133
-44 22 15 24 15 36 -1 7 -9 21 -16 32 -13 16 3 19 13 22 68 7 149 -20 200
-106 200 -35 0 -57 -6 -76 -21z m114 -146 c0 -29 -70 -57 -84 -34 -14 22 7 41
45 41 21 0 39 -3 39 -7z"></path>
<path d="M4899 1035 c-58 -31 -77 -135 -36 -196 31 -46 62 -61 120 -56 55 5
115 50 96 73 -17 21 -46 22 -63 3 -22 -26 -82 -26 -96 0 -15 29 -12 93 6 119
19 28 53 28 88 1 23 -18 31 -20 52 -10 23 10 24 12 9 34 -8 13 -27 29 -41 35
-34 16 -103 14 -135 -3z"></path>
<path d="M5205 1017 c-86 -86 -32 -237 85 -237 45 0 105 37 105 65 0 25 -37
32 -55 10 -16 -20 -74 -19 -95 1 -29 30 -12 39 78 42 l87 3 0 30 c0 37 -23 83
-52 103 -13 9 -43 16 -71 16 -42 0 -54 -5 -82 -33z m117 -34 c29 -26 22 -33
-32 -33 -53 0 -68 18 -32 39 25 15 43 13 64 -6z"></path>
</g>
</svg>